<svg id="ei-mail" xmlns="http://www.w3.org/2000/svg" width="25" height="25" viewBox="0 0 25 25">
  <path id="パス_5742" data-name="パス 5742" d="M22.278,8H5.891A1.893,1.893,0,0,0,4,9.891V21.235a1.893,1.893,0,0,0,1.891,1.891H22.278a1.893,1.893,0,0,0,1.891-1.891V9.891A1.893,1.893,0,0,0,22.278,8Zm-.261,1.261-7.932,7.932L6.152,9.261Zm.261,12.605H5.891a.631.631,0,0,1-.63-.63V10.152l8.378,8.378a.63.63,0,0,0,.891,0l8.378-8.378V21.235A.631.631,0,0,1,22.278,21.866Z" transform="translate(-1.479 -2.958)" fill="#fff"/>
  <rect id="長方形_29134" data-name="長方形 29134" width="25" height="25" fill="none"/>
</svg>
