<svg xmlns="http://www.w3.org/2000/svg" width="26.066" height="23" viewBox="0 0 26.066 23">
  <g id="グループ_18819" data-name="グループ 18819" transform="translate(-56.593 -230.845)">
    <path id="パス_5747" data-name="パス 5747" d="M68.964,256.187a5.75,5.75,0,1,0-6.342,0,9.207,9.207,0,0,0-6.029,8.625h1.533a7.666,7.666,0,0,1,15.333,0h1.533A9.207,9.207,0,0,0,68.964,256.187Zm-3.171-.575a4.217,4.217,0,1,1,4.217-4.217A4.221,4.221,0,0,1,65.793,255.611Z" transform="translate(0 -10.967)" fill="#fff"/>
    <path id="パス_5748" data-name="パス 5748" d="M110.734,241.387a5.744,5.744,0,1,0-8.117-7.709,7.28,7.28,0,0,1,1.355.718A4.241,4.241,0,0,1,105,233.253a4.209,4.209,0,1,1,2.562,7.558c-.136,0-.269-.008-.4-.02a7.232,7.232,0,0,1-.258,1.6c.219-.019.436-.047.66-.047a7.715,7.715,0,0,1,7.666,7.667h1.533A9.207,9.207,0,0,0,110.734,241.387Z" transform="translate(-34.104 0)" fill="#fff"/>
  </g>
</svg>
